<svg width="31" height="30" viewBox="0 0 31 30" fill="none" xmlns="http://www.w3.org/2000/svg">
<path d="M21.8915 0.0942317C19.0395 -0.0345161 11.9753 -0.0282662 9.12075 0.0942317C6.61234 0.20798 4.39971 0.794219 2.61592 2.52044C-0.365248 5.40539 0.0157936 9.29282 0.0157936 14.994C0.0157936 20.8289 -0.32004 24.6263 2.61592 27.4675C5.60871 30.3625 9.68392 29.9837 15.5055 29.9837C21.4781 29.9837 23.5396 29.9875 25.6515 29.1962C28.5229 28.1175 30.6903 25.6338 30.9021 21.1726C31.0365 18.4114 31.0287 11.5765 30.9021 8.81408C30.6464 3.54792 27.7259 0.354227 21.8915 0.0942317ZM26.4058 25.5588C24.4515 27.45 21.7403 27.2813 15.468 27.2813C9.00967 27.2813 6.41988 27.3738 4.53017 25.54C2.35371 23.4438 2.74767 20.0776 2.74767 14.974C2.74767 8.06784 2.01529 3.09418 9.17759 2.73919C10.8232 2.68294 11.3075 2.66419 15.4499 2.66419L15.508 2.70169C22.3913 2.70169 27.7918 2.0042 28.116 8.93408C28.1896 10.5153 28.2064 10.9903 28.2064 14.9927C28.2051 21.1701 28.3266 23.6913 26.4058 25.5588Z" fill="#FAF8FF"/>
<path d="M15.5 7C11.3554 7 8 10.359 8 14.5C8 18.6446 11.359 22 15.5 22C19.6446 22 23 18.641 23 14.5C23 10.3554 19.641 7 15.5 7ZM15.5 19.3681C12.8096 19.3681 10.6319 17.1892 10.6319 14.5C10.6319 11.8108 12.8108 9.63194 15.5 9.63194C18.1892 9.63194 20.3681 11.8108 20.3681 14.5C20.3693 17.1892 18.1904 19.3681 15.5 19.3681Z" fill="#FAF8FF"/>
</svg>
