<svg width="76" height="76" viewBox="0 0 76 76" fill="none" xmlns="http://www.w3.org/2000/svg">
<path d="M76 38C76 58.9868 58.9868 76 38 76C17.0132 76 0 58.9868 0 38C0 17.0132 17.0132 0 38 0C58.9868 0 76 17.0132 76 38Z" fill="#FFFFFB" fill-opacity="0.09"/>
<g clip-path="url(#clip0)">
<path d="M59.7845 16.2156H17.5259V58.4742H59.7845V16.2156Z" fill="#ECEFF1"/>
<path d="M38.6553 41.7892L59.7846 58.4743V25.5337L38.6553 41.7892Z" fill="#CFD8DC"/>
<path d="M61.5454 16.2156H59.7846L38.6553 32.9007L17.526 16.2156H15.7652C12.8494 16.2156 10.4829 18.5821 10.4829 21.4979V53.1919C10.4829 56.1077 12.8494 58.4742 15.7652 58.4742H17.526V25.5336L38.6553 41.7856L59.7846 25.5301V58.4742H61.5454C64.4613 58.4742 66.8277 56.1077 66.8277 53.1919V21.4979C66.8277 18.5821 64.4613 16.2156 61.5454 16.2156Z" fill="#F44336"/>
</g>
<defs>
<clipPath id="clip0">
<rect width="56.3448" height="56.3448" fill="white" transform="translate(10.4829 9.17236)"/>
</clipPath>
</defs>
</svg>
