<svg width="75" height="75" viewBox="0 0 75 75" fill="none" xmlns="http://www.w3.org/2000/svg">
<circle cx="37.5" cy="37.5" r="37.5" fill="#FFFFFB" fill-opacity="0.25"/>
<path d="M55.0845 25.6098H44.4964L42.3584 22.018C42.1492 21.6668 41.7708 21.4517 41.3621 21.4517H34.6376C34.2289 21.4517 33.8504 21.6668 33.6414 22.018L31.5033 25.6098H28.0289V24.8182C28.0289 24.1779 27.5098 23.6588 26.8695 23.6588H22.5798C21.9394 23.6588 21.4204 24.1779 21.4204 24.8182V25.6098H20.9154C19.3051 25.6098 18 26.9151 18 28.5251V49.633C18 51.2431 19.3051 52.5484 20.9153 52.5484H55.0845C56.6946 52.5484 57.9999 51.2431 57.9999 49.633V28.5251C58 26.9151 56.6946 25.6098 55.0845 25.6098ZM37.9999 47.3773C33.4168 47.3773 29.7016 43.6621 29.7016 39.0789C29.7016 34.496 33.4168 30.7807 37.9999 30.7807C42.5829 30.7807 46.2981 34.496 46.2981 39.0789C46.2981 43.6621 42.5829 47.3773 37.9999 47.3773ZM53.2656 31.6202H49.6328C48.9925 31.6202 48.4734 31.1011 48.4734 30.4607C48.4734 29.8203 48.9925 29.3012 49.6328 29.3012H53.2656C53.9061 29.3012 54.4251 29.8203 54.4251 30.4607C54.4251 31.1011 53.906 31.6202 53.2656 31.6202Z" fill="#9E094A"/>
<path d="M37.9993 44.8761C41.201 44.8761 43.7965 42.2806 43.7965 39.0789C43.7965 35.8772 41.201 33.2817 37.9993 33.2817C34.7976 33.2817 32.2021 35.8772 32.2021 39.0789C32.2021 42.2806 34.7976 44.8761 37.9993 44.8761Z" fill="#9E094A"/>
</svg>
