<svg width="445" height="426" viewBox="0 0 445 426" fill="none" xmlns="http://www.w3.org/2000/svg">
<mask id="mask0" mask-type="alpha" maskUnits="userSpaceOnUse" x="0" y="0" width="445" height="426">
<rect x="0.5" y="0.5" width="444" height="424.777" rx="7.5" fill="white" fill-opacity="0.77" stroke="white"/>
</mask>
<g mask="url(#mask0)">
<rect y="-1.10876" width="492.009" height="427.25" fill="white" fill-opacity="0.77"/>
</g>
<path d="M222.126 209.019C240.907 209.019 256.133 189.987 256.133 166.51C256.133 143.032 251.134 124 222.126 124C193.118 124 188.118 143.032 188.118 166.51C188.118 189.987 203.344 209.019 222.126 209.019Z" fill="#110F24"/>
<path d="M151.008 276.81C151.001 275.27 150.994 276.376 151.008 276.81V276.81Z" fill="#110F24"/>
<path d="M293.252 278.013C293.274 277.591 293.259 275.087 293.252 278.013V278.013Z" fill="#110F24"/>
<path d="M293.172 274.962C292.475 230.958 286.728 218.419 242.75 210.482C242.75 210.482 236.56 218.37 222.131 218.37C207.702 218.37 201.51 210.482 201.51 210.482C158.013 218.333 151.916 230.685 151.115 273.532C151.049 277.031 151.019 277.215 151.007 276.808C151.01 277.569 151.013 278.977 151.013 281.432C151.013 281.432 161.483 302.538 222.131 302.538C282.778 302.538 293.249 281.432 293.249 281.432C293.249 279.855 293.25 278.758 293.252 278.012C293.24 278.263 293.217 277.776 293.172 274.962Z" fill="#110F24"/>
</svg>
