<svg width="28" height="31" viewBox="0 0 28 31" fill="none" xmlns="http://www.w3.org/2000/svg">
<path d="M13.5 0.100342C9.35539 0.100342 6 3.45939 6 7.60034C6 11.745 9.35904 15.1003 13.5 15.1003C17.6446 15.1003 21 11.7413 21 7.60034C21 3.45573 17.641 0.100342 13.5 0.100342ZM13.5 12.4684C10.8096 12.4684 8.63194 10.2895 8.63194 7.60034C8.63194 4.91116 10.8108 2.73228 13.5 2.73228C16.1892 2.73228 18.3681 4.91116 18.3681 7.60034C18.3693 10.2895 16.1904 12.4684 13.5 12.4684Z" fill="#FAF8FF"/>
<path d="M0.553711 29.1003V24.9724H1.11328V29.1003H0.553711ZM4.08691 29.1003V27.0906C4.08691 26.8816 4.06641 26.7195 4.02539 26.6042C3.98438 26.489 3.91895 26.406 3.8291 26.3552C3.73926 26.3044 3.60742 26.2791 3.43359 26.2791C3.17969 26.2791 2.97949 26.366 2.83301 26.5398C2.68652 26.7136 2.61328 26.9548 2.61328 27.2634V29.1003H2.08594V26.6072C2.08594 26.238 2.08008 26.0125 2.06836 25.9304H2.56641C2.56836 25.9402 2.57031 25.9666 2.57227 26.0095C2.57422 26.0525 2.57617 26.1023 2.57812 26.1589C2.58203 26.2136 2.58594 26.3181 2.58984 26.4724H2.59863C2.71973 26.2537 2.85938 26.0994 3.01758 26.0095C3.17773 25.9177 3.37598 25.8718 3.6123 25.8718C3.95996 25.8718 4.21387 25.9587 4.37402 26.1326C4.53613 26.3044 4.61719 26.5896 4.61719 26.988V29.1003H4.08691ZM7.79297 28.2244C7.79297 28.5232 7.67969 28.7537 7.45312 28.9158C7.22852 29.0779 6.91309 29.1589 6.50684 29.1589C6.1123 29.1589 5.80762 29.0945 5.59277 28.9656C5.37988 28.8347 5.24121 28.6316 5.17676 28.3562L5.64258 28.2654C5.6875 28.4353 5.78027 28.5603 5.9209 28.6404C6.06152 28.7185 6.25684 28.7576 6.50684 28.7576C6.77441 28.7576 6.96973 28.7166 7.09277 28.6345C7.21777 28.5525 7.28027 28.4294 7.28027 28.2654C7.28027 28.1404 7.2373 28.0388 7.15137 27.9607C7.06543 27.8826 6.92676 27.8181 6.73535 27.7673L6.35742 27.6677C6.05469 27.5896 5.83887 27.5134 5.70996 27.4392C5.58301 27.363 5.4834 27.2712 5.41113 27.1638C5.33887 27.0564 5.30273 26.9246 5.30273 26.7683C5.30273 26.4792 5.40527 26.2595 5.61035 26.1091C5.81738 25.9568 6.11816 25.8806 6.5127 25.8806C6.8623 25.8806 7.13965 25.9421 7.34473 26.0652C7.55176 26.1882 7.68262 26.3855 7.7373 26.657L7.2627 26.7156C7.2334 26.575 7.1543 26.4675 7.02539 26.3933C6.89844 26.3171 6.72754 26.2791 6.5127 26.2791C6.27441 26.2791 6.09863 26.3152 5.98535 26.3875C5.87207 26.4597 5.81543 26.5691 5.81543 26.7156C5.81543 26.8054 5.83887 26.8796 5.88574 26.9382C5.93262 26.9968 6.00195 27.0466 6.09375 27.0876C6.18555 27.1287 6.37891 27.1853 6.67383 27.2576C6.95312 27.3279 7.1543 27.3933 7.27734 27.4539C7.40039 27.5125 7.49707 27.5779 7.56738 27.6501C7.63965 27.7224 7.69531 27.8064 7.73438 27.9021C7.77344 27.9958 7.79297 28.1033 7.79297 28.2244ZM9.63281 29.0769C9.45898 29.1238 9.28125 29.1472 9.09961 29.1472C8.67773 29.1472 8.4668 28.908 8.4668 28.4294V26.3142H8.10059V25.9304H8.4873L8.64258 25.2214H8.99414V25.9304H9.58008V26.3142H8.99414V28.3152C8.99414 28.4675 9.01855 28.575 9.06738 28.6375C9.11816 28.698 9.20508 28.7283 9.32812 28.7283C9.39844 28.7283 9.5 28.7146 9.63281 28.6873V29.0769ZM10.8926 29.1589C10.5742 29.1589 10.335 29.075 10.1748 28.907C10.0146 28.739 9.93457 28.5085 9.93457 28.2156C9.93457 27.8875 10.042 27.6355 10.2568 27.4597C10.4736 27.2839 10.8223 27.1902 11.3027 27.1785L12.0146 27.1667V26.9939C12.0146 26.7361 11.96 26.5515 11.8506 26.4402C11.7412 26.3289 11.5693 26.2732 11.335 26.2732C11.0986 26.2732 10.9268 26.3132 10.8193 26.3933C10.7119 26.4734 10.6475 26.6013 10.626 26.7771L10.0752 26.7273C10.165 26.157 10.5889 25.8718 11.3467 25.8718C11.7451 25.8718 12.0449 25.9636 12.2461 26.1472C12.4473 26.3289 12.5479 26.5925 12.5479 26.9382V28.3035C12.5479 28.4597 12.5684 28.5779 12.6094 28.658C12.6504 28.7361 12.7285 28.7751 12.8438 28.7751C12.8945 28.7751 12.9521 28.7683 13.0166 28.7546V29.0828C12.8838 29.114 12.748 29.1296 12.6094 29.1296C12.4141 29.1296 12.2715 29.0789 12.1816 28.9773C12.0938 28.8738 12.0439 28.7126 12.0322 28.4939H12.0146C11.8799 28.7361 11.7227 28.908 11.543 29.0095C11.3652 29.1091 11.1484 29.1589 10.8926 29.1589ZM11.0127 28.7634C11.2061 28.7634 11.3779 28.7195 11.5283 28.6316C11.6787 28.5437 11.7969 28.4236 11.8828 28.2712C11.9707 28.1169 12.0146 27.9587 12.0146 27.7966V27.5359L11.4375 27.5476C11.1895 27.5515 11.001 27.5769 10.8721 27.6238C10.7451 27.6707 10.6475 27.7429 10.5791 27.8406C10.5107 27.9382 10.4766 28.0662 10.4766 28.2244C10.4766 28.3962 10.5225 28.5291 10.6143 28.6228C10.708 28.7166 10.8408 28.7634 11.0127 28.7634ZM14.625 30.3455C14.2793 30.3455 14.0039 30.2771 13.7988 30.1404C13.5938 30.0056 13.4619 29.8132 13.4033 29.5632L13.9336 29.4871C13.9688 29.6335 14.0459 29.7458 14.165 29.824C14.2861 29.9041 14.4443 29.9441 14.6396 29.9441C15.165 29.9441 15.4277 29.6365 15.4277 29.0212V28.5115H15.4219C15.3223 28.7146 15.1855 28.8679 15.0117 28.9714C14.8379 29.073 14.6348 29.1238 14.4023 29.1238C14.0137 29.1238 13.7275 28.9949 13.5439 28.7371C13.3623 28.4792 13.2715 28.074 13.2715 27.5212C13.2715 26.9607 13.3691 26.5476 13.5645 26.282C13.7617 26.0144 14.0605 25.8806 14.4609 25.8806C14.6855 25.8806 14.8799 25.9324 15.0439 26.0359C15.21 26.1375 15.3379 26.283 15.4277 26.4724H15.4336C15.4336 26.4138 15.4375 26.3123 15.4453 26.1677C15.4531 26.0232 15.4609 25.9441 15.4688 25.9304H15.9697C15.958 26.0359 15.9521 26.2546 15.9521 26.5867V29.0095C15.9521 29.9001 15.5098 30.3455 14.625 30.3455ZM15.4277 27.5154C15.4277 27.2576 15.3926 27.0359 15.3223 26.8503C15.252 26.6628 15.1523 26.5203 15.0234 26.4226C14.8965 26.323 14.752 26.2732 14.5898 26.2732C14.3203 26.2732 14.124 26.3708 14.001 26.5662C13.8779 26.7615 13.8164 27.0779 13.8164 27.5154C13.8164 27.949 13.874 28.2605 13.9893 28.45C14.1045 28.6394 14.3018 28.7341 14.5811 28.7341C14.7471 28.7341 14.8945 28.6853 15.0234 28.5876C15.1523 28.49 15.252 28.3503 15.3223 28.1687C15.3926 27.9851 15.4277 27.7673 15.4277 27.5154ZM16.7754 29.1003V26.6687C16.7754 26.446 16.7695 26.2 16.7578 25.9304H17.2559C17.2715 26.2898 17.2793 26.5056 17.2793 26.5779H17.291C17.375 26.3064 17.4717 26.1208 17.5811 26.0212C17.6904 25.9216 17.8447 25.8718 18.0439 25.8718C18.1143 25.8718 18.1855 25.8816 18.2578 25.9011V26.3845C18.1875 26.365 18.0938 26.3552 17.9766 26.3552C17.7578 26.3552 17.5908 26.45 17.4756 26.6394C17.3604 26.8269 17.3027 27.0964 17.3027 27.448V29.1003H16.7754ZM19.5703 29.1589C19.252 29.1589 19.0127 29.075 18.8525 28.907C18.6924 28.739 18.6123 28.5085 18.6123 28.2156C18.6123 27.8875 18.7197 27.6355 18.9346 27.4597C19.1514 27.2839 19.5 27.1902 19.9805 27.1785L20.6924 27.1667V26.9939C20.6924 26.7361 20.6377 26.5515 20.5283 26.4402C20.4189 26.3289 20.2471 26.2732 20.0127 26.2732C19.7764 26.2732 19.6045 26.3132 19.4971 26.3933C19.3896 26.4734 19.3252 26.6013 19.3037 26.7771L18.7529 26.7273C18.8428 26.157 19.2666 25.8718 20.0244 25.8718C20.4229 25.8718 20.7227 25.9636 20.9238 26.1472C21.125 26.3289 21.2256 26.5925 21.2256 26.9382V28.3035C21.2256 28.4597 21.2461 28.5779 21.2871 28.658C21.3281 28.7361 21.4062 28.7751 21.5215 28.7751C21.5723 28.7751 21.6299 28.7683 21.6943 28.7546V29.0828C21.5615 29.114 21.4258 29.1296 21.2871 29.1296C21.0918 29.1296 20.9492 29.0789 20.8594 28.9773C20.7715 28.8738 20.7217 28.7126 20.71 28.4939H20.6924C20.5576 28.7361 20.4004 28.908 20.2207 29.0095C20.043 29.1091 19.8262 29.1589 19.5703 29.1589ZM19.6904 28.7634C19.8838 28.7634 20.0557 28.7195 20.2061 28.6316C20.3564 28.5437 20.4746 28.4236 20.5605 28.2712C20.6484 28.1169 20.6924 27.9587 20.6924 27.7966V27.5359L20.1152 27.5476C19.8672 27.5515 19.6787 27.5769 19.5498 27.6238C19.4229 27.6707 19.3252 27.7429 19.2568 27.8406C19.1885 27.9382 19.1543 28.0662 19.1543 28.2244C19.1543 28.3962 19.2002 28.5291 19.292 28.6228C19.3857 28.7166 19.5186 28.7634 19.6904 28.7634ZM23.9473 29.1003V27.0906C23.9473 26.7839 23.9053 26.572 23.8213 26.4548C23.7373 26.3376 23.5859 26.2791 23.3672 26.2791C23.1426 26.2791 22.9648 26.365 22.834 26.5369C22.7031 26.7087 22.6377 26.9509 22.6377 27.2634V29.1003H22.1133V26.6072C22.1133 26.238 22.1074 26.0125 22.0957 25.9304H22.5938C22.5957 25.9402 22.5977 25.9666 22.5996 26.0095C22.6016 26.0525 22.6035 26.1023 22.6055 26.1589C22.6094 26.2136 22.6133 26.3181 22.6172 26.4724H22.626C22.7393 26.2478 22.8691 26.0916 23.0156 26.0037C23.1621 25.9158 23.3408 25.8718 23.5518 25.8718C23.792 25.8718 23.9814 25.9197 24.1201 26.0154C24.2607 26.1111 24.3584 26.2634 24.4131 26.4724H24.4219C24.5312 26.2595 24.6631 26.1062 24.8174 26.0125C24.9736 25.9187 25.1621 25.8718 25.3828 25.8718C25.7031 25.8718 25.9355 25.9587 26.0801 26.1326C26.2266 26.3064 26.2998 26.5916 26.2998 26.988V29.1003H25.7783V27.0906C25.7783 26.7839 25.7363 26.572 25.6523 26.4548C25.5684 26.3376 25.417 26.2791 25.1982 26.2791C24.9678 26.2791 24.7881 26.365 24.6592 26.5369C24.5322 26.7068 24.4688 26.949 24.4688 27.2634V29.1003H23.9473Z" fill="white"/>
</svg>
