<svg width="76" height="76" viewBox="0 0 76 76" fill="none" xmlns="http://www.w3.org/2000/svg">
<circle cx="38" cy="38" r="38" fill="#FFFFFB" fill-opacity="0.09"/>
<path d="M65.5171 20.8432C63.5192 21.7114 61.3904 22.2868 59.1709 22.5662C61.4542 21.2158 63.1969 19.0936 64.0162 16.5357C61.8874 17.7931 59.5369 18.6812 57.032 19.1768C55.0107 17.0446 52.1297 15.7241 48.9869 15.7241C42.8892 15.7241 37.9801 20.627 37.9801 26.6376C37.9801 27.5024 38.054 28.334 38.2353 29.1256C29.0787 28.6832 20.9764 24.3358 15.5335 17.7132C14.5833 19.3464 14.0259 21.2158 14.0259 23.2282C14.0259 27.0068 15.9902 30.3563 18.9181 32.2955C17.1486 32.2623 15.4126 31.7534 13.9419 30.9517C13.9419 30.985 13.9419 31.0282 13.9419 31.0715C13.9419 36.3735 17.7597 40.7775 22.7661 41.792C21.8696 42.0348 20.8925 42.1513 19.8785 42.1513C19.1733 42.1513 18.4615 42.1113 17.7933 41.965C19.2203 46.2858 23.2698 49.4624 28.0848 49.5655C24.3376 52.4693 19.5796 54.2189 14.4288 54.2189C13.5256 54.2189 12.6593 54.179 11.793 54.0692C16.6718 57.186 22.4539 58.9655 28.6892 58.9655C48.9566 58.9655 60.0372 42.3342 60.0372 27.9182C60.0372 27.4359 60.0205 26.9702 59.9969 26.5079C62.1828 24.9711 64.0195 23.0519 65.5171 20.8432Z" fill="#03A9F4"/>
</svg>
