<svg width="76" height="76" viewBox="0 0 76 76" fill="none" xmlns="http://www.w3.org/2000/svg">
<circle cx="38" cy="38" r="38" fill="#FFFFFB" fill-opacity="0.09"/>
<path d="M57.0158 40.5017C56.0837 39.3093 56.3503 38.7788 57.0158 37.7129C57.0278 37.7007 64.7226 26.9301 65.5154 23.2774L65.5202 23.275C65.9142 21.9438 65.5202 20.9656 63.6151 20.9656H57.3113C55.7065 20.9656 54.9666 21.8051 54.5702 22.7445C54.5702 22.7445 51.3606 30.5268 46.8201 35.5714C45.3546 37.0291 44.6772 37.4963 43.8772 37.4963C43.4832 37.4963 42.8706 37.0291 42.8706 35.698V23.275C42.8706 21.6786 42.4213 20.9656 41.0928 20.9656H31.1806C30.174 20.9656 29.5758 21.7102 29.5758 22.4038C29.5758 23.9174 31.846 24.2654 32.0815 28.524V37.764C32.0815 39.7887 31.7187 40.161 30.9139 40.161C28.771 40.161 23.5698 32.347 20.4876 23.4039C19.8654 21.6689 19.2576 20.968 17.6408 20.968H11.3345C9.53512 20.968 9.17236 21.8076 9.17236 22.7469C9.17236 24.4065 11.3153 32.6585 19.1374 43.5606C24.3506 51.0022 31.6923 55.0345 38.3709 55.0345C42.3853 55.0345 42.8754 54.139 42.8754 52.5986C42.8754 45.4879 42.5126 44.8163 44.5234 44.8163C45.4555 44.8163 47.0603 45.2835 50.808 48.8729C55.0915 53.1291 55.7954 55.0345 58.193 55.0345H64.4968C66.2938 55.0345 67.2043 54.139 66.6806 52.3723C65.4818 48.6563 57.381 41.0127 57.0158 40.5017Z" fill="#4B729F"/>
</svg>
