<svg width="29" height="37" viewBox="0 0 29 37" fill="none" xmlns="http://www.w3.org/2000/svg">
<path d="M4.10938 31.4294V35.1003H3.55273V31.4294H2.13477V30.9724H5.52734V31.4294H4.10938ZM5.80859 33.6267C5.80859 33.99 5.88379 34.2703 6.03418 34.4675C6.18457 34.6648 6.4043 34.7634 6.69336 34.7634C6.92188 34.7634 7.10449 34.7175 7.24121 34.6257C7.37988 34.5339 7.47363 34.4177 7.52246 34.2771L7.98535 34.4089C7.7959 34.9089 7.36523 35.1589 6.69336 35.1589C6.22461 35.1589 5.86719 35.0193 5.62109 34.74C5.37695 34.4607 5.25488 34.0457 5.25488 33.4949C5.25488 32.9714 5.37695 32.5701 5.62109 32.2908C5.86719 32.0115 6.21777 31.8718 6.67285 31.8718C7.60449 31.8718 8.07031 32.4333 8.07031 33.5564V33.6267H5.80859ZM7.52539 33.2224C7.49609 32.8884 7.41113 32.6453 7.27051 32.4929C7.12988 32.3386 6.92773 32.2615 6.66406 32.2615C6.4082 32.2615 6.20508 32.3474 6.05469 32.5193C5.90625 32.6892 5.82617 32.9236 5.81445 33.2224H7.52539ZM8.74414 35.1003V30.7527H9.27148V35.1003H8.74414ZM10.4844 33.6267C10.4844 33.99 10.5596 34.2703 10.71 34.4675C10.8604 34.6648 11.0801 34.7634 11.3691 34.7634C11.5977 34.7634 11.7803 34.7175 11.917 34.6257C12.0557 34.5339 12.1494 34.4177 12.1982 34.2771L12.6611 34.4089C12.4717 34.9089 12.041 35.1589 11.3691 35.1589C10.9004 35.1589 10.543 35.0193 10.2969 34.74C10.0527 34.4607 9.93066 34.0457 9.93066 33.4949C9.93066 32.9714 10.0527 32.5701 10.2969 32.2908C10.543 32.0115 10.8936 31.8718 11.3486 31.8718C12.2803 31.8718 12.7461 32.4333 12.7461 33.5564V33.6267H10.4844ZM12.2012 33.2224C12.1719 32.8884 12.0869 32.6453 11.9463 32.4929C11.8057 32.3386 11.6035 32.2615 11.3398 32.2615C11.084 32.2615 10.8809 32.3474 10.7305 32.5193C10.582 32.6892 10.502 32.9236 10.4902 33.2224H12.2012ZM14.6211 36.3455C14.2754 36.3455 14 36.2771 13.7949 36.1404C13.5898 36.0056 13.458 35.8132 13.3994 35.5632L13.9297 35.4871C13.9648 35.6335 14.042 35.7458 14.1611 35.824C14.2822 35.9041 14.4404 35.9441 14.6357 35.9441C15.1611 35.9441 15.4238 35.6365 15.4238 35.0212V34.5115H15.418C15.3184 34.7146 15.1816 34.8679 15.0078 34.9714C14.834 35.073 14.6309 35.1238 14.3984 35.1238C14.0098 35.1238 13.7236 34.9949 13.54 34.7371C13.3584 34.4792 13.2676 34.074 13.2676 33.5212C13.2676 32.9607 13.3652 32.5476 13.5605 32.282C13.7578 32.0144 14.0566 31.8806 14.457 31.8806C14.6816 31.8806 14.876 31.9324 15.04 32.0359C15.2061 32.1375 15.334 32.283 15.4238 32.4724H15.4297C15.4297 32.4138 15.4336 32.3123 15.4414 32.1677C15.4492 32.0232 15.457 31.9441 15.4648 31.9304H15.9658C15.9541 32.0359 15.9482 32.2546 15.9482 32.5867V35.0095C15.9482 35.9001 15.5059 36.3455 14.6211 36.3455ZM15.4238 33.5154C15.4238 33.2576 15.3887 33.0359 15.3184 32.8503C15.248 32.6628 15.1484 32.5203 15.0195 32.4226C14.8926 32.323 14.748 32.2732 14.5859 32.2732C14.3164 32.2732 14.1201 32.3708 13.9971 32.5662C13.874 32.7615 13.8125 33.0779 13.8125 33.5154C13.8125 33.949 13.8701 34.2605 13.9854 34.45C14.1006 34.6394 14.2979 34.7341 14.5771 34.7341C14.7432 34.7341 14.8906 34.6853 15.0195 34.5876C15.1484 34.49 15.248 34.3503 15.3184 34.1687C15.3887 33.9851 15.4238 33.7673 15.4238 33.5154ZM16.7715 35.1003V32.6687C16.7715 32.446 16.7656 32.2 16.7539 31.9304H17.252C17.2676 32.2898 17.2754 32.5056 17.2754 32.5779H17.2871C17.3711 32.3064 17.4678 32.1208 17.5771 32.0212C17.6865 31.9216 17.8408 31.8718 18.04 31.8718C18.1104 31.8718 18.1816 31.8816 18.2539 31.9011V32.3845C18.1836 32.365 18.0898 32.3552 17.9727 32.3552C17.7539 32.3552 17.5869 32.45 17.4717 32.6394C17.3564 32.8269 17.2988 33.0964 17.2988 33.448V35.1003H16.7715ZM19.5664 35.1589C19.248 35.1589 19.0088 35.075 18.8486 34.907C18.6885 34.739 18.6084 34.5085 18.6084 34.2156C18.6084 33.8875 18.7158 33.6355 18.9307 33.4597C19.1475 33.2839 19.4961 33.1902 19.9766 33.1785L20.6885 33.1667V32.9939C20.6885 32.7361 20.6338 32.5515 20.5244 32.4402C20.415 32.3289 20.2432 32.2732 20.0088 32.2732C19.7725 32.2732 19.6006 32.3132 19.4932 32.3933C19.3857 32.4734 19.3213 32.6013 19.2998 32.7771L18.749 32.7273C18.8389 32.157 19.2627 31.8718 20.0205 31.8718C20.4189 31.8718 20.7188 31.9636 20.9199 32.1472C21.1211 32.3289 21.2217 32.5925 21.2217 32.9382V34.3035C21.2217 34.4597 21.2422 34.5779 21.2832 34.658C21.3242 34.7361 21.4023 34.7751 21.5176 34.7751C21.5684 34.7751 21.626 34.7683 21.6904 34.7546V35.0828C21.5576 35.114 21.4219 35.1296 21.2832 35.1296C21.0879 35.1296 20.9453 35.0789 20.8555 34.9773C20.7676 34.8738 20.7178 34.7126 20.7061 34.4939H20.6885C20.5537 34.7361 20.3965 34.908 20.2168 35.0095C20.0391 35.1091 19.8223 35.1589 19.5664 35.1589ZM19.6865 34.7634C19.8799 34.7634 20.0518 34.7195 20.2021 34.6316C20.3525 34.5437 20.4707 34.4236 20.5566 34.2712C20.6445 34.1169 20.6885 33.9587 20.6885 33.7966V33.5359L20.1113 33.5476C19.8633 33.5515 19.6748 33.5769 19.5459 33.6238C19.4189 33.6707 19.3213 33.7429 19.2529 33.8406C19.1846 33.9382 19.1504 34.0662 19.1504 34.2244C19.1504 34.3962 19.1963 34.5291 19.2881 34.6228C19.3818 34.7166 19.5146 34.7634 19.6865 34.7634ZM23.9434 35.1003V33.0906C23.9434 32.7839 23.9014 32.572 23.8174 32.4548C23.7334 32.3376 23.582 32.2791 23.3633 32.2791C23.1387 32.2791 22.9609 32.365 22.8301 32.5369C22.6992 32.7087 22.6338 32.9509 22.6338 33.2634V35.1003H22.1094V32.6072C22.1094 32.238 22.1035 32.0125 22.0918 31.9304H22.5898C22.5918 31.9402 22.5938 31.9666 22.5957 32.0095C22.5977 32.0525 22.5996 32.1023 22.6016 32.1589C22.6055 32.2136 22.6094 32.3181 22.6133 32.4724H22.6221C22.7354 32.2478 22.8652 32.0916 23.0117 32.0037C23.1582 31.9158 23.3369 31.8718 23.5479 31.8718C23.7881 31.8718 23.9775 31.9197 24.1162 32.0154C24.2568 32.1111 24.3545 32.2634 24.4092 32.4724H24.418C24.5273 32.2595 24.6592 32.1062 24.8135 32.0125C24.9697 31.9187 25.1582 31.8718 25.3789 31.8718C25.6992 31.8718 25.9316 31.9587 26.0762 32.1326C26.2227 32.3064 26.2959 32.5916 26.2959 32.988V35.1003H25.7744V33.0906C25.7744 32.7839 25.7324 32.572 25.6484 32.4548C25.5645 32.3376 25.4131 32.2791 25.1943 32.2791C24.9639 32.2791 24.7842 32.365 24.6553 32.5369C24.5283 32.7068 24.4648 32.949 24.4648 33.2634V35.1003H23.9434Z" fill="white"/>
<g clip-path="url(#clip0)">
<path d="M28.5522 2.98105C28.198 2.54784 27.6674 2.30933 27.0581 2.30933C26.7269 2.30933 26.376 2.37902 26.0154 2.51686L1.46739 11.8876C0.164657 12.3847 -0.0107958 13.1308 0.00048802 13.5312C0.0117719 13.9317 0.229263 14.6667 1.55811 15.0895C1.56607 15.092 1.57404 15.0944 1.582 15.0966L6.6739 16.5538L9.42761 24.4282C9.80308 25.5017 10.6458 26.1685 11.6273 26.1685C12.2461 26.1685 12.8548 25.9092 13.3876 25.4189L16.5371 22.519L21.1053 26.1973C21.1058 26.1977 21.1064 26.198 21.1069 26.1984L21.1502 26.2334C21.1542 26.2365 21.1584 26.2398 21.1624 26.2429C21.6702 26.6367 22.2244 26.8447 22.7658 26.8449H22.766C23.8238 26.8449 24.6662 26.0619 24.9115 24.8503L28.9337 4.9898C29.0952 4.19263 28.9598 3.47931 28.5522 2.98105ZM8.37733 16.277L18.2012 11.2583L12.0842 17.7581C11.984 17.8645 11.9129 17.9948 11.878 18.1366L10.6985 22.9143L8.37733 16.277ZM12.2364 24.1688C12.1957 24.2062 12.1548 24.2396 12.1138 24.2704L13.2082 19.8383L15.1988 21.4412L12.2364 24.1688ZM27.2683 4.65239L23.2462 24.5131C23.2074 24.7032 23.0838 25.1455 22.7658 25.1455C22.6087 25.1455 22.4114 25.0598 22.2094 24.9043L17.0329 20.7363C17.0323 20.7357 17.0314 20.735 17.0305 20.7346L13.9505 18.2543L22.7963 8.85486C23.0796 8.55396 23.1052 8.09309 22.8572 7.76254C22.6089 7.43198 22.1591 7.328 21.7912 7.51606L7.24208 14.9488L2.08092 13.4722L26.6214 4.10435C26.8287 4.02514 26.9734 4.00854 27.0581 4.00854C27.1101 4.00854 27.2026 4.01474 27.2369 4.057C27.282 4.11209 27.3395 4.29993 27.2683 4.65239Z" fill="white"/>
</g>
<defs>
<clipPath id="clip0">
<rect width="29" height="29" fill="white" transform="translate(0 0.100342)"/>
</clipPath>
</defs>
</svg>
